M48
; DRILL file {KiCad (5.1.10)-1} date 05/17/21 00:39:47
; FORMAT={-:-/ absolute / inch / decimal}
; #@! TF.CreationDate,2021-05-17T00:39:47-05:00
; #@! TF.GenerationSoftware,Kicad,Pcbnew,(5.1.10)-1
; #@! TF.FileFunction,Plated,1,2,PTH
FMAT,2
INCH
T1C0.0394
T2C0.0433
%
G90
G05
T1
X3.65Y-3.5
X3.65Y-3.6
X3.75Y-3.5
X3.75Y-3.6
X3.85Y-3.5
X3.85Y-3.6
X3.95Y-3.5
X3.95Y-3.6
X4.5Y-3.5
X4.5Y-3.6
X4.6Y-3.5
X4.6Y-3.6
X4.7Y-3.5
X4.7Y-3.6
X4.8Y-3.5
X4.8Y-3.6
T2
X3.553Y-2.753
X3.553Y-3.353
X3.56Y-3.065
X3.56Y-3.143
X3.653Y-2.753
X3.653Y-2.853
X3.653Y-3.353
X3.753Y-2.753
X3.753Y-3.353
X3.853Y-2.753
X3.853Y-2.853
X3.853Y-3.353
X3.953Y-2.753
X3.953Y-2.853
X3.953Y-3.353
X4.053Y-2.753
X4.053Y-2.853
X4.053Y-3.353
X4.153Y-2.753
X4.153Y-3.353
X4.253Y-2.753
X4.253Y-3.353
X4.353Y-2.753
X4.353Y-3.353
X4.453Y-2.753
X4.453Y-3.353
X4.553Y-2.753
X4.553Y-3.353
X4.653Y-2.753
X4.653Y-3.353
X4.753Y-2.753
X4.753Y-3.353
X4.853Y-2.753
X4.853Y-2.853
X4.853Y-2.953
X4.853Y-3.053
X4.853Y-3.153
X4.853Y-3.253
X4.853Y-3.353
T0
M30
