%TF.GenerationSoftware,KiCad,Pcbnew,(5.1.10)-1*%
%TF.CreationDate,2021-05-17T00:39:45-05:00*%
%TF.ProjectId,mario2,6d617269-6f32-42e6-9b69-6361645f7063,rev?*%
%TF.SameCoordinates,Original*%
%TF.FileFunction,Legend,Bot*%
%TF.FilePolarity,Positive*%
%FSLAX46Y46*%
G04 Gerber Fmt 4.6, Leading zero omitted, Abs format (unit mm)*
G04 Created by KiCad (PCBNEW (5.1.10)-1) date 2021-05-17 00:39:45*
%MOMM*%
%LPD*%
G01*
G04 APERTURE LIST*
%ADD10C,0.300000*%
G04 APERTURE END LIST*
D10*
X113334761Y-80743095D02*
X113334761Y-79876428D01*
X113334761Y-80000238D02*
X113272857Y-79938333D01*
X113149047Y-79876428D01*
X112963333Y-79876428D01*
X112839523Y-79938333D01*
X112777619Y-80062142D01*
X112777619Y-80743095D01*
X112777619Y-80062142D02*
X112715714Y-79938333D01*
X112591904Y-79876428D01*
X112406190Y-79876428D01*
X112282380Y-79938333D01*
X112220476Y-80062142D01*
X112220476Y-80743095D01*
X111044285Y-80743095D02*
X111044285Y-80062142D01*
X111106190Y-79938333D01*
X111230000Y-79876428D01*
X111477619Y-79876428D01*
X111601428Y-79938333D01*
X111044285Y-80681190D02*
X111168095Y-80743095D01*
X111477619Y-80743095D01*
X111601428Y-80681190D01*
X111663333Y-80557380D01*
X111663333Y-80433571D01*
X111601428Y-80309761D01*
X111477619Y-80247857D01*
X111168095Y-80247857D01*
X111044285Y-80185952D01*
X109868095Y-80743095D02*
X109868095Y-79443095D01*
X109868095Y-80681190D02*
X109991904Y-80743095D01*
X110239523Y-80743095D01*
X110363333Y-80681190D01*
X110425238Y-80619285D01*
X110487142Y-80495476D01*
X110487142Y-80124047D01*
X110425238Y-80000238D01*
X110363333Y-79938333D01*
X110239523Y-79876428D01*
X109991904Y-79876428D01*
X109868095Y-79938333D01*
X108753809Y-80681190D02*
X108877619Y-80743095D01*
X109125238Y-80743095D01*
X109249047Y-80681190D01*
X109310952Y-80557380D01*
X109310952Y-80062142D01*
X109249047Y-79938333D01*
X109125238Y-79876428D01*
X108877619Y-79876428D01*
X108753809Y-79938333D01*
X108691904Y-80062142D01*
X108691904Y-80185952D01*
X109310952Y-80309761D01*
X107268095Y-79876428D02*
X107020476Y-80743095D01*
X106772857Y-80124047D01*
X106525238Y-80743095D01*
X106277619Y-79876428D01*
X105782380Y-80743095D02*
X105782380Y-79876428D01*
X105782380Y-79443095D02*
X105844285Y-79505000D01*
X105782380Y-79566904D01*
X105720476Y-79505000D01*
X105782380Y-79443095D01*
X105782380Y-79566904D01*
X105349047Y-79876428D02*
X104853809Y-79876428D01*
X105163333Y-79443095D02*
X105163333Y-80557380D01*
X105101428Y-80681190D01*
X104977619Y-80743095D01*
X104853809Y-80743095D01*
X104420476Y-80743095D02*
X104420476Y-79443095D01*
X103863333Y-80743095D02*
X103863333Y-80062142D01*
X103925238Y-79938333D01*
X104049047Y-79876428D01*
X104234761Y-79876428D01*
X104358571Y-79938333D01*
X104420476Y-80000238D01*
X101263333Y-79876428D02*
X102253809Y-80247857D01*
X101263333Y-80619285D01*
X100768095Y-79443095D02*
X99963333Y-79443095D01*
X100396666Y-79938333D01*
X100210952Y-79938333D01*
X100087142Y-80000238D01*
X100025238Y-80062142D01*
X99963333Y-80185952D01*
X99963333Y-80495476D01*
X100025238Y-80619285D01*
X100087142Y-80681190D01*
X100210952Y-80743095D01*
X100582380Y-80743095D01*
X100706190Y-80681190D01*
X100768095Y-80619285D01*
X121165714Y-82993095D02*
X121165714Y-81693095D01*
X121165714Y-82188333D02*
X121041904Y-82126428D01*
X120794285Y-82126428D01*
X120670476Y-82188333D01*
X120608571Y-82250238D01*
X120546666Y-82374047D01*
X120546666Y-82745476D01*
X120608571Y-82869285D01*
X120670476Y-82931190D01*
X120794285Y-82993095D01*
X121041904Y-82993095D01*
X121165714Y-82931190D01*
X120113333Y-82126428D02*
X119803809Y-82993095D01*
X119494285Y-82126428D02*
X119803809Y-82993095D01*
X119927619Y-83302619D01*
X119989523Y-83364523D01*
X120113333Y-83426428D01*
X118008571Y-82993095D02*
X118008571Y-81693095D01*
X118008571Y-82188333D02*
X117884761Y-82126428D01*
X117637142Y-82126428D01*
X117513333Y-82188333D01*
X117451428Y-82250238D01*
X117389523Y-82374047D01*
X117389523Y-82745476D01*
X117451428Y-82869285D01*
X117513333Y-82931190D01*
X117637142Y-82993095D01*
X117884761Y-82993095D01*
X118008571Y-82931190D01*
X116275238Y-82993095D02*
X116275238Y-82312142D01*
X116337142Y-82188333D01*
X116460952Y-82126428D01*
X116708571Y-82126428D01*
X116832380Y-82188333D01*
X116275238Y-82931190D02*
X116399047Y-82993095D01*
X116708571Y-82993095D01*
X116832380Y-82931190D01*
X116894285Y-82807380D01*
X116894285Y-82683571D01*
X116832380Y-82559761D01*
X116708571Y-82497857D01*
X116399047Y-82497857D01*
X116275238Y-82435952D01*
X115656190Y-82126428D02*
X115656190Y-82993095D01*
X115656190Y-82250238D02*
X115594285Y-82188333D01*
X115470476Y-82126428D01*
X115284761Y-82126428D01*
X115160952Y-82188333D01*
X115099047Y-82312142D01*
X115099047Y-82993095D01*
X113922857Y-82993095D02*
X113922857Y-81693095D01*
X113922857Y-82931190D02*
X114046666Y-82993095D01*
X114294285Y-82993095D01*
X114418095Y-82931190D01*
X114480000Y-82869285D01*
X114541904Y-82745476D01*
X114541904Y-82374047D01*
X114480000Y-82250238D01*
X114418095Y-82188333D01*
X114294285Y-82126428D01*
X114046666Y-82126428D01*
X113922857Y-82188333D01*
X113303809Y-82993095D02*
X113303809Y-82126428D01*
X113303809Y-81693095D02*
X113365714Y-81755000D01*
X113303809Y-81816904D01*
X113241904Y-81755000D01*
X113303809Y-81693095D01*
X113303809Y-81816904D01*
X112870476Y-82126428D02*
X112375238Y-82126428D01*
X112684761Y-81693095D02*
X112684761Y-82807380D01*
X112622857Y-82931190D01*
X112499047Y-82993095D01*
X112375238Y-82993095D01*
X111880000Y-82931190D02*
X111880000Y-82993095D01*
X111941904Y-83116904D01*
X112003809Y-83178809D01*
X110456190Y-82126428D02*
X109775238Y-82126428D01*
X110456190Y-82993095D01*
X109775238Y-82993095D01*
X108722857Y-82993095D02*
X108722857Y-82312142D01*
X108784761Y-82188333D01*
X108908571Y-82126428D01*
X109156190Y-82126428D01*
X109280000Y-82188333D01*
X108722857Y-82931190D02*
X108846666Y-82993095D01*
X109156190Y-82993095D01*
X109280000Y-82931190D01*
X109341904Y-82807380D01*
X109341904Y-82683571D01*
X109280000Y-82559761D01*
X109156190Y-82497857D01*
X108846666Y-82497857D01*
X108722857Y-82435952D01*
X108103809Y-82126428D02*
X108103809Y-82993095D01*
X108103809Y-82250238D02*
X108041904Y-82188333D01*
X107918095Y-82126428D01*
X107732380Y-82126428D01*
X107608571Y-82188333D01*
X107546666Y-82312142D01*
X107546666Y-82993095D01*
X106927619Y-82993095D02*
X106927619Y-82126428D01*
X106927619Y-81693095D02*
X106989523Y-81755000D01*
X106927619Y-81816904D01*
X106865714Y-81755000D01*
X106927619Y-81693095D01*
X106927619Y-81816904D01*
X105813333Y-82931190D02*
X105937142Y-82993095D01*
X106184761Y-82993095D01*
X106308571Y-82931190D01*
X106370476Y-82807380D01*
X106370476Y-82312142D01*
X106308571Y-82188333D01*
X106184761Y-82126428D01*
X105937142Y-82126428D01*
X105813333Y-82188333D01*
X105751428Y-82312142D01*
X105751428Y-82435952D01*
X106370476Y-82559761D01*
X105008571Y-82993095D02*
X105132380Y-82931190D01*
X105194285Y-82807380D01*
X105194285Y-81693095D01*
X104451428Y-82931190D02*
X104451428Y-82993095D01*
X104513333Y-83116904D01*
X104575238Y-83178809D01*
X102346666Y-82993095D02*
X102346666Y-82312142D01*
X102408571Y-82188333D01*
X102532380Y-82126428D01*
X102780000Y-82126428D01*
X102903809Y-82188333D01*
X102346666Y-82931190D02*
X102470476Y-82993095D01*
X102780000Y-82993095D01*
X102903809Y-82931190D01*
X102965714Y-82807380D01*
X102965714Y-82683571D01*
X102903809Y-82559761D01*
X102780000Y-82497857D01*
X102470476Y-82497857D01*
X102346666Y-82435952D01*
X101727619Y-82126428D02*
X101727619Y-82993095D01*
X101727619Y-82250238D02*
X101665714Y-82188333D01*
X101541904Y-82126428D01*
X101356190Y-82126428D01*
X101232380Y-82188333D01*
X101170476Y-82312142D01*
X101170476Y-82993095D01*
X99994285Y-82993095D02*
X99994285Y-81693095D01*
X99994285Y-82931190D02*
X100118095Y-82993095D01*
X100365714Y-82993095D01*
X100489523Y-82931190D01*
X100551428Y-82869285D01*
X100613333Y-82745476D01*
X100613333Y-82374047D01*
X100551428Y-82250238D01*
X100489523Y-82188333D01*
X100365714Y-82126428D01*
X100118095Y-82126428D01*
X99994285Y-82188333D01*
X98384761Y-82993095D02*
X98384761Y-82126428D01*
X98384761Y-81693095D02*
X98446666Y-81755000D01*
X98384761Y-81816904D01*
X98322857Y-81755000D01*
X98384761Y-81693095D01*
X98384761Y-81816904D01*
X97208571Y-82993095D02*
X97208571Y-82312142D01*
X97270476Y-82188333D01*
X97394285Y-82126428D01*
X97641904Y-82126428D01*
X97765714Y-82188333D01*
X97208571Y-82931190D02*
X97332380Y-82993095D01*
X97641904Y-82993095D01*
X97765714Y-82931190D01*
X97827619Y-82807380D01*
X97827619Y-82683571D01*
X97765714Y-82559761D01*
X97641904Y-82497857D01*
X97332380Y-82497857D01*
X97208571Y-82435952D01*
X96589523Y-82993095D02*
X96589523Y-82126428D01*
X96589523Y-82250238D02*
X96527619Y-82188333D01*
X96403809Y-82126428D01*
X96218095Y-82126428D01*
X96094285Y-82188333D01*
X96032380Y-82312142D01*
X96032380Y-82993095D01*
X96032380Y-82312142D02*
X95970476Y-82188333D01*
X95846666Y-82126428D01*
X95660952Y-82126428D01*
X95537142Y-82188333D01*
X95475238Y-82312142D01*
X95475238Y-82993095D01*
X94360952Y-82931190D02*
X94484761Y-82993095D01*
X94732380Y-82993095D01*
X94856190Y-82931190D01*
X94918095Y-82807380D01*
X94918095Y-82312142D01*
X94856190Y-82188333D01*
X94732380Y-82126428D01*
X94484761Y-82126428D01*
X94360952Y-82188333D01*
X94299047Y-82312142D01*
X94299047Y-82435952D01*
X94918095Y-82559761D01*
X93865714Y-82126428D02*
X93556190Y-82993095D01*
X93246666Y-82126428D01*
X92751428Y-82126428D02*
X92751428Y-82993095D01*
X92751428Y-82250238D02*
X92689523Y-82188333D01*
X92565714Y-82126428D01*
X92380000Y-82126428D01*
X92256190Y-82188333D01*
X92194285Y-82312142D01*
X92194285Y-82993095D01*
X122788571Y-95928571D02*
X122788571Y-94428571D01*
X122288571Y-95500000D01*
X121788571Y-94428571D01*
X121788571Y-95928571D01*
X121145714Y-95500000D02*
X120431428Y-95500000D01*
X121288571Y-95928571D02*
X120788571Y-94428571D01*
X120288571Y-95928571D01*
X118931428Y-95928571D02*
X119431428Y-95214285D01*
X119788571Y-95928571D02*
X119788571Y-94428571D01*
X119217142Y-94428571D01*
X119074285Y-94500000D01*
X119002857Y-94571428D01*
X118931428Y-94714285D01*
X118931428Y-94928571D01*
X119002857Y-95071428D01*
X119074285Y-95142857D01*
X119217142Y-95214285D01*
X119788571Y-95214285D01*
X118288571Y-95785714D02*
X118217142Y-95857142D01*
X118288571Y-95928571D01*
X118360000Y-95857142D01*
X118288571Y-95785714D01*
X118288571Y-95928571D01*
X117574285Y-95928571D02*
X117574285Y-94428571D01*
X116574285Y-94428571D02*
X116288571Y-94428571D01*
X116145714Y-94500000D01*
X116002857Y-94642857D01*
X115931428Y-94928571D01*
X115931428Y-95428571D01*
X116002857Y-95714285D01*
X116145714Y-95857142D01*
X116288571Y-95928571D01*
X116574285Y-95928571D01*
X116717142Y-95857142D01*
X116860000Y-95714285D01*
X116931428Y-95428571D01*
X116931428Y-94928571D01*
X116860000Y-94642857D01*
X116717142Y-94500000D01*
X116574285Y-94428571D01*
X114217142Y-94571428D02*
X114145714Y-94500000D01*
X114002857Y-94428571D01*
X113645714Y-94428571D01*
X113502857Y-94500000D01*
X113431428Y-94571428D01*
X113360000Y-94714285D01*
X113360000Y-94857142D01*
X113431428Y-95071428D01*
X114288571Y-95928571D01*
X113360000Y-95928571D01*
M02*
