%TF.GenerationSoftware,KiCad,Pcbnew,(5.1.10)-1*%
%TF.CreationDate,2021-05-17T00:39:45-05:00*%
%TF.ProjectId,mario2,6d617269-6f32-42e6-9b69-6361645f7063,rev?*%
%TF.SameCoordinates,Original*%
%TF.FileFunction,Copper,L2,Bot*%
%TF.FilePolarity,Positive*%
%FSLAX46Y46*%
G04 Gerber Fmt 4.6, Leading zero omitted, Abs format (unit mm)*
G04 Created by KiCad (PCBNEW (5.1.10)-1) date 2021-05-17 00:39:45*
%MOMM*%
%LPD*%
G01*
G04 APERTURE LIST*
%TA.AperFunction,ComponentPad*%
%ADD10C,1.600000*%
%TD*%
%TA.AperFunction,ComponentPad*%
%ADD11R,1.600000X1.600000*%
%TD*%
%TA.AperFunction,ComponentPad*%
%ADD12R,1.700000X1.700000*%
%TD*%
%TA.AperFunction,ComponentPad*%
%ADD13O,1.700000X1.700000*%
%TD*%
%TA.AperFunction,Conductor*%
%ADD14C,0.250000*%
%TD*%
G04 APERTURE END LIST*
D10*
%TO.P,U1,39*%
%TO.N,Net-(U1-Pad39)*%
X90422801Y-79831001D03*
%TO.P,U1,40*%
%TO.N,Net-(U1-Pad40)*%
X90422801Y-77849801D03*
D11*
%TO.P,U1,1*%
%TO.N,Net-(J1-Pad1)*%
X90245001Y-85165001D03*
D10*
%TO.P,U1,2*%
%TO.N,Net-(U1-Pad2)*%
X92785001Y-85165001D03*
%TO.P,U1,3*%
%TO.N,Net-(U1-Pad3)*%
X95325001Y-85165001D03*
%TO.P,U1,4*%
%TO.N,Net-(U1-Pad4)*%
X97865001Y-85165001D03*
%TO.P,U1,5*%
%TO.N,Net-(U1-Pad5)*%
X100405001Y-85165001D03*
%TO.P,U1,6*%
%TO.N,Net-(U1-Pad6)*%
X102945001Y-85165001D03*
%TO.P,U1,7*%
%TO.N,Net-(U1-Pad7)*%
X105485001Y-85165001D03*
%TO.P,U1,8*%
%TO.N,Net-(U1-Pad8)*%
X108025001Y-85165001D03*
%TO.P,U1,9*%
%TO.N,Net-(U1-Pad9)*%
X110565001Y-85165001D03*
%TO.P,U1,10*%
%TO.N,Net-(U1-Pad10)*%
X113105001Y-85165001D03*
%TO.P,U1,11*%
%TO.N,Net-(U1-Pad11)*%
X115645001Y-85165001D03*
%TO.P,U1,12*%
%TO.N,Net-(U1-Pad12)*%
X118185001Y-85165001D03*
%TO.P,U1,13*%
%TO.N,Net-(U1-Pad13)*%
X120725001Y-85165001D03*
%TO.P,U1,37*%
%TO.N,Net-(U1-Pad37)*%
X102945001Y-72465001D03*
%TO.P,U1,36*%
%TO.N,Net-(U1-Pad36)*%
X100405001Y-72465001D03*
%TO.P,U1,35*%
%TO.N,Net-(U1-Pad35)*%
X97865001Y-72465001D03*
%TO.P,U1,34*%
%TO.N,Net-(U1-Pad34)*%
X92785001Y-72465001D03*
%TO.P,U1,33*%
%TO.N,Net-(U1-Pad33)*%
X90245001Y-69925001D03*
%TO.P,U1,32*%
%TO.N,Net-(U1-Pad32)*%
X92785001Y-69925001D03*
%TO.P,U1,31*%
%TO.N,Net-(J2-Pad1)*%
X95325001Y-69925001D03*
%TO.P,U1,30*%
%TO.N,Net-(J1-Pad2)*%
X97865001Y-69925001D03*
%TO.P,U1,29*%
%TO.N,Net-(J1-Pad4)*%
X100405001Y-69925001D03*
%TO.P,U1,28*%
%TO.N,Net-(J1-Pad6)*%
X102945001Y-69925001D03*
%TO.P,U1,27*%
%TO.N,Net-(J1-Pad8)*%
X105485001Y-69925001D03*
%TO.P,U1,26*%
%TO.N,Net-(U1-Pad26)*%
X108025001Y-69925001D03*
%TO.P,U1,25*%
%TO.N,Net-(U1-Pad25)*%
X110565001Y-69925001D03*
%TO.P,U1,24*%
%TO.N,Net-(U1-Pad24)*%
X113105001Y-69925001D03*
%TO.P,U1,23*%
%TO.N,Net-(U1-Pad23)*%
X115645001Y-69925001D03*
%TO.P,U1,22*%
%TO.N,Net-(U1-Pad22)*%
X118185001Y-69925001D03*
%TO.P,U1,21*%
%TO.N,Net-(U1-Pad21)*%
X120725001Y-69925001D03*
%TO.P,U1,14*%
%TO.N,Net-(U1-Pad14)*%
X123265001Y-85165001D03*
%TO.P,U1,15*%
%TO.N,Net-(U1-Pad15)*%
X123265001Y-82625001D03*
%TO.P,U1,16*%
%TO.N,Net-(U1-Pad16)*%
X123265001Y-80085001D03*
%TO.P,U1,20*%
%TO.N,Net-(U1-Pad20)*%
X123265001Y-69925001D03*
%TO.P,U1,19*%
%TO.N,Net-(U1-Pad19)*%
X123265001Y-72465001D03*
%TO.P,U1,18*%
%TO.N,Net-(U1-Pad18)*%
X123265001Y-75005001D03*
%TO.P,U1,17*%
%TO.N,Net-(U1-Pad17)*%
X123265001Y-77545001D03*
%TD*%
D12*
%TO.P,J1,1*%
%TO.N,Net-(J1-Pad1)*%
X100330000Y-88900000D03*
D13*
%TO.P,J1,2*%
%TO.N,Net-(J1-Pad2)*%
X100330000Y-91440000D03*
%TO.P,J1,3*%
%TO.N,Net-(J1-Pad1)*%
X97790000Y-88900000D03*
%TO.P,J1,4*%
%TO.N,Net-(J1-Pad4)*%
X97790000Y-91440000D03*
%TO.P,J1,5*%
%TO.N,Net-(J1-Pad1)*%
X95250000Y-88900000D03*
%TO.P,J1,6*%
%TO.N,Net-(J1-Pad6)*%
X95250000Y-91440000D03*
%TO.P,J1,7*%
%TO.N,Net-(J1-Pad1)*%
X92710000Y-88900000D03*
%TO.P,J1,8*%
%TO.N,Net-(J1-Pad8)*%
X92710000Y-91440000D03*
%TD*%
%TO.P,J2,8*%
%TO.N,Net-(J1-Pad8)*%
X114300000Y-91440000D03*
%TO.P,J2,7*%
%TO.N,Net-(J2-Pad1)*%
X114300000Y-88900000D03*
%TO.P,J2,6*%
%TO.N,Net-(J1-Pad6)*%
X116840000Y-91440000D03*
%TO.P,J2,5*%
%TO.N,Net-(J2-Pad1)*%
X116840000Y-88900000D03*
%TO.P,J2,4*%
%TO.N,Net-(J1-Pad4)*%
X119380000Y-91440000D03*
%TO.P,J2,3*%
%TO.N,Net-(J2-Pad1)*%
X119380000Y-88900000D03*
%TO.P,J2,2*%
%TO.N,Net-(J1-Pad2)*%
X121920000Y-91440000D03*
D12*
%TO.P,J2,1*%
%TO.N,Net-(J2-Pad1)*%
X121920000Y-88900000D03*
%TD*%
D14*
%TO.N,Net-(J1-Pad2)*%
X120744999Y-90264999D02*
X121920000Y-91440000D01*
X101505001Y-90264999D02*
X120744999Y-90264999D01*
X100330000Y-91440000D02*
X101505001Y-90264999D01*
X101530002Y-90239998D02*
X100330000Y-91440000D01*
X101530002Y-71925000D02*
X101530002Y-90239998D01*
X100945002Y-71340000D02*
X101530002Y-71925000D01*
X99280000Y-71340000D02*
X100945002Y-71340000D01*
X97865001Y-69925001D02*
X99280000Y-71340000D01*
%TO.N,Net-(J1-Pad6)*%
X115664999Y-92615001D02*
X116840000Y-91440000D01*
X96425001Y-92615001D02*
X115664999Y-92615001D01*
X95250000Y-91440000D02*
X96425001Y-92615001D01*
X104070002Y-71050002D02*
X102945001Y-69925001D01*
X105735004Y-71050002D02*
X104070002Y-71050002D01*
X120185000Y-86290002D02*
X119310002Y-85415004D01*
X119310002Y-85415004D02*
X119310002Y-84625000D01*
X121595004Y-86290002D02*
X120185000Y-86290002D01*
X123095001Y-87789999D02*
X121595004Y-86290002D01*
X123095001Y-92004001D02*
X123095001Y-87789999D01*
X119310002Y-84625000D02*
X105735004Y-71050002D01*
X122484001Y-92615001D02*
X123095001Y-92004001D01*
X118015001Y-92615001D02*
X122484001Y-92615001D01*
X116840000Y-91440000D02*
X118015001Y-92615001D01*
%TD*%
M02*
