%TF.GenerationSoftware,KiCad,Pcbnew,(5.1.10)-1*%
%TF.CreationDate,2021-05-24T22:58:33-05:00*%
%TF.ProjectId,mario2,6d617269-6f32-42e6-9b69-6361645f7063,rev?*%
%TF.SameCoordinates,Original*%
%TF.FileFunction,Legend,Top*%
%TF.FilePolarity,Positive*%
%FSLAX46Y46*%
G04 Gerber Fmt 4.6, Leading zero omitted, Abs format (unit mm)*
G04 Created by KiCad (PCBNEW (5.1.10)-1) date 2021-05-24 22:58:33*
%MOMM*%
%LPD*%
G01*
G04 APERTURE LIST*
%ADD10C,0.010000*%
%ADD11C,0.120000*%
%ADD12C,0.150000*%
%ADD13C,0.100000*%
G04 APERTURE END LIST*
D10*
%TO.C,G\u002A\u002A\u002A*%
G36*
X97036057Y-54011445D02*
G01*
X97068315Y-54040715D01*
X97216778Y-54365754D01*
X96973135Y-54783112D01*
X96921612Y-54841223D01*
X96661958Y-55164902D01*
X96725067Y-55321199D01*
X97189795Y-55396576D01*
X97448314Y-55418725D01*
X98169268Y-55565408D01*
X98423994Y-55855000D01*
X98425000Y-55880000D01*
X98200880Y-56179660D01*
X97512188Y-56335632D01*
X97448314Y-56341274D01*
X96834015Y-56410144D01*
X96645969Y-56531088D01*
X96803321Y-56786275D01*
X96901696Y-56896769D01*
X97156918Y-57377306D01*
X97098856Y-57775098D01*
X96810558Y-57912000D01*
X96543984Y-57744171D01*
X96053180Y-57311274D01*
X95626940Y-56891843D01*
X94630785Y-55871686D01*
X95697909Y-54804560D01*
X96344366Y-54205947D01*
X96761687Y-53957588D01*
X97036057Y-54011445D01*
G37*
X97036057Y-54011445D02*
X97068315Y-54040715D01*
X97216778Y-54365754D01*
X96973135Y-54783112D01*
X96921612Y-54841223D01*
X96661958Y-55164902D01*
X96725067Y-55321199D01*
X97189795Y-55396576D01*
X97448314Y-55418725D01*
X98169268Y-55565408D01*
X98423994Y-55855000D01*
X98425000Y-55880000D01*
X98200880Y-56179660D01*
X97512188Y-56335632D01*
X97448314Y-56341274D01*
X96834015Y-56410144D01*
X96645969Y-56531088D01*
X96803321Y-56786275D01*
X96901696Y-56896769D01*
X97156918Y-57377306D01*
X97098856Y-57775098D01*
X96810558Y-57912000D01*
X96543984Y-57744171D01*
X96053180Y-57311274D01*
X95626940Y-56891843D01*
X94630785Y-55871686D01*
X95697909Y-54804560D01*
X96344366Y-54205947D01*
X96761687Y-53957588D01*
X97036057Y-54011445D01*
G36*
X101909282Y-54799752D02*
G01*
X102509520Y-55447639D01*
X102759628Y-55865977D01*
X102707629Y-56140718D01*
X102677284Y-56174315D01*
X102352378Y-56322656D01*
X101934985Y-56079188D01*
X101875829Y-56026755D01*
X101563119Y-55774879D01*
X101405931Y-55825029D01*
X101330094Y-56258628D01*
X101298328Y-56660716D01*
X101156521Y-57453869D01*
X100898485Y-57850417D01*
X100561525Y-57799256D01*
X100504625Y-57747958D01*
X100393343Y-57402824D01*
X100333366Y-56761517D01*
X100330000Y-56560299D01*
X100316113Y-55924986D01*
X100225208Y-55718925D01*
X99983411Y-55863378D01*
X99815998Y-56012431D01*
X99371350Y-56310770D01*
X99044982Y-56217569D01*
X98998715Y-56174315D01*
X98906198Y-55913489D01*
X99108700Y-55521749D01*
X99654244Y-54913146D01*
X99766717Y-54799752D01*
X100838000Y-53728471D01*
X101909282Y-54799752D01*
G37*
X101909282Y-54799752D02*
X102509520Y-55447639D01*
X102759628Y-55865977D01*
X102707629Y-56140718D01*
X102677284Y-56174315D01*
X102352378Y-56322656D01*
X101934985Y-56079188D01*
X101875829Y-56026755D01*
X101563119Y-55774879D01*
X101405931Y-55825029D01*
X101330094Y-56258628D01*
X101298328Y-56660716D01*
X101156521Y-57453869D01*
X100898485Y-57850417D01*
X100561525Y-57799256D01*
X100504625Y-57747958D01*
X100393343Y-57402824D01*
X100333366Y-56761517D01*
X100330000Y-56560299D01*
X100316113Y-55924986D01*
X100225208Y-55718925D01*
X99983411Y-55863378D01*
X99815998Y-56012431D01*
X99371350Y-56310770D01*
X99044982Y-56217569D01*
X98998715Y-56174315D01*
X98906198Y-55913489D01*
X99108700Y-55521749D01*
X99654244Y-54913146D01*
X99766717Y-54799752D01*
X100838000Y-53728471D01*
X101909282Y-54799752D01*
G36*
X105433054Y-54166668D02*
G01*
X105588191Y-54780768D01*
X105616328Y-55079542D01*
X105678523Y-55752093D01*
X105782199Y-55999340D01*
X105999589Y-55903047D01*
X106193829Y-55733244D01*
X106634809Y-55444772D01*
X106963608Y-55555104D01*
X106991180Y-55581580D01*
X107082846Y-55850841D01*
X106868502Y-56258713D01*
X106301867Y-56893062D01*
X106298630Y-56896378D01*
X105730377Y-57452885D01*
X105306092Y-57821784D01*
X105156000Y-57912000D01*
X104910076Y-57744830D01*
X104434230Y-57313652D01*
X104013369Y-56896378D01*
X103445133Y-56260875D01*
X103229385Y-55852224D01*
X103319844Y-55582558D01*
X103320819Y-55581580D01*
X103647462Y-55439117D01*
X104072871Y-55692907D01*
X104118170Y-55733244D01*
X104428907Y-55983655D01*
X104586197Y-55935502D01*
X104662272Y-55507022D01*
X104695671Y-55079542D01*
X104816605Y-54316252D01*
X105051550Y-53994361D01*
X105156000Y-53975000D01*
X105433054Y-54166668D01*
G37*
X105433054Y-54166668D02*
X105588191Y-54780768D01*
X105616328Y-55079542D01*
X105678523Y-55752093D01*
X105782199Y-55999340D01*
X105999589Y-55903047D01*
X106193829Y-55733244D01*
X106634809Y-55444772D01*
X106963608Y-55555104D01*
X106991180Y-55581580D01*
X107082846Y-55850841D01*
X106868502Y-56258713D01*
X106301867Y-56893062D01*
X106298630Y-56896378D01*
X105730377Y-57452885D01*
X105306092Y-57821784D01*
X105156000Y-57912000D01*
X104910076Y-57744830D01*
X104434230Y-57313652D01*
X104013369Y-56896378D01*
X103445133Y-56260875D01*
X103229385Y-55852224D01*
X103319844Y-55582558D01*
X103320819Y-55581580D01*
X103647462Y-55439117D01*
X104072871Y-55692907D01*
X104118170Y-55733244D01*
X104428907Y-55983655D01*
X104586197Y-55935502D01*
X104662272Y-55507022D01*
X104695671Y-55079542D01*
X104816605Y-54316252D01*
X105051550Y-53994361D01*
X105156000Y-53975000D01*
X105433054Y-54166668D01*
G36*
X109578632Y-54150622D02*
G01*
X110187418Y-54696738D01*
X110296090Y-54804560D01*
X111363215Y-55871686D01*
X110367059Y-56891843D01*
X109706084Y-57537739D01*
X109286024Y-57842597D01*
X109016506Y-57850498D01*
X108829108Y-57641994D01*
X108852671Y-57271897D01*
X109092303Y-56896769D01*
X109334457Y-56587451D01*
X109254594Y-56436135D01*
X108771857Y-56360652D01*
X108545685Y-56341274D01*
X107824731Y-56194591D01*
X107570005Y-55904999D01*
X107569000Y-55880000D01*
X107793119Y-55580339D01*
X108481811Y-55424367D01*
X108545685Y-55418725D01*
X109162210Y-55351113D01*
X109350760Y-55231478D01*
X109190196Y-54973355D01*
X109072387Y-54841223D01*
X108784186Y-54403755D01*
X108891411Y-54076736D01*
X108925684Y-54040715D01*
X109186782Y-53947960D01*
X109578632Y-54150622D01*
G37*
X109578632Y-54150622D02*
X110187418Y-54696738D01*
X110296090Y-54804560D01*
X111363215Y-55871686D01*
X110367059Y-56891843D01*
X109706084Y-57537739D01*
X109286024Y-57842597D01*
X109016506Y-57850498D01*
X108829108Y-57641994D01*
X108852671Y-57271897D01*
X109092303Y-56896769D01*
X109334457Y-56587451D01*
X109254594Y-56436135D01*
X108771857Y-56360652D01*
X108545685Y-56341274D01*
X107824731Y-56194591D01*
X107570005Y-55904999D01*
X107569000Y-55880000D01*
X107793119Y-55580339D01*
X108481811Y-55424367D01*
X108545685Y-55418725D01*
X109162210Y-55351113D01*
X109350760Y-55231478D01*
X109190196Y-54973355D01*
X109072387Y-54841223D01*
X108784186Y-54403755D01*
X108891411Y-54076736D01*
X108925684Y-54040715D01*
X109186782Y-53947960D01*
X109578632Y-54150622D01*
G36*
X102775196Y-79608012D02*
G01*
X103370644Y-80169644D01*
X103629505Y-80960263D01*
X103632000Y-81052620D01*
X103478599Y-81724606D01*
X103187500Y-81986684D01*
X102818217Y-82364265D01*
X102743000Y-82677000D01*
X102650106Y-83011315D01*
X102286636Y-83186808D01*
X101661176Y-83263218D01*
X100885250Y-83254780D01*
X100495199Y-83068335D01*
X100432168Y-82957881D01*
X100396516Y-82624542D01*
X100627833Y-82624542D01*
X100889675Y-82906079D01*
X101468403Y-83019309D01*
X101687337Y-83008815D01*
X102302319Y-82837534D01*
X102489000Y-82550000D01*
X102274207Y-82260962D01*
X101773405Y-82090973D01*
X101201959Y-82077298D01*
X100778388Y-82254011D01*
X100627833Y-82624542D01*
X100396516Y-82624542D01*
X100381557Y-82484690D01*
X100431635Y-82337040D01*
X100348272Y-82095934D01*
X100073143Y-81967656D01*
X99659019Y-81644628D01*
X99562296Y-81159584D01*
X99911527Y-81159584D01*
X99935321Y-81511868D01*
X100283876Y-81763618D01*
X100665400Y-81721465D01*
X100838000Y-81421990D01*
X100816775Y-81366566D01*
X102405911Y-81366566D01*
X102458344Y-81720650D01*
X102783433Y-81744088D01*
X103174595Y-81497414D01*
X103251000Y-81276521D01*
X103092447Y-80953005D01*
X102758907Y-80934482D01*
X102463559Y-81198238D01*
X102405911Y-81366566D01*
X100816775Y-81366566D01*
X100668768Y-80980092D01*
X100561868Y-80885321D01*
X100181468Y-80873855D01*
X99911527Y-81159584D01*
X99562296Y-81159584D01*
X99545707Y-81076396D01*
X99667544Y-80620500D01*
X100908935Y-80620500D01*
X100960298Y-80764393D01*
X101319410Y-80974090D01*
X101804721Y-80939900D01*
X102171872Y-80708388D01*
X102235000Y-80521478D01*
X102030638Y-80178720D01*
X101576796Y-80036371D01*
X101112336Y-80154898D01*
X101036351Y-80218048D01*
X100908935Y-80620500D01*
X99667544Y-80620500D01*
X99721577Y-80418317D01*
X100145700Y-79864051D01*
X100366670Y-79864051D01*
X100426562Y-79996588D01*
X100569009Y-80010000D01*
X100913438Y-79825524D01*
X100963201Y-79758909D01*
X100929898Y-79641332D01*
X102213609Y-79641332D01*
X102236798Y-79758909D01*
X102508467Y-79969466D01*
X102799602Y-80004801D01*
X102870000Y-79910175D01*
X102670761Y-79747045D01*
X102475807Y-79659084D01*
X102213609Y-79641332D01*
X100929898Y-79641332D01*
X100922318Y-79614572D01*
X100724192Y-79659084D01*
X100366670Y-79864051D01*
X100145700Y-79864051D01*
X100175009Y-79825749D01*
X100237254Y-79774435D01*
X101081710Y-79362668D01*
X101969955Y-79323107D01*
X102775196Y-79608012D01*
G37*
X102775196Y-79608012D02*
X103370644Y-80169644D01*
X103629505Y-80960263D01*
X103632000Y-81052620D01*
X103478599Y-81724606D01*
X103187500Y-81986684D01*
X102818217Y-82364265D01*
X102743000Y-82677000D01*
X102650106Y-83011315D01*
X102286636Y-83186808D01*
X101661176Y-83263218D01*
X100885250Y-83254780D01*
X100495199Y-83068335D01*
X100432168Y-82957881D01*
X100396516Y-82624542D01*
X100627833Y-82624542D01*
X100889675Y-82906079D01*
X101468403Y-83019309D01*
X101687337Y-83008815D01*
X102302319Y-82837534D01*
X102489000Y-82550000D01*
X102274207Y-82260962D01*
X101773405Y-82090973D01*
X101201959Y-82077298D01*
X100778388Y-82254011D01*
X100627833Y-82624542D01*
X100396516Y-82624542D01*
X100381557Y-82484690D01*
X100431635Y-82337040D01*
X100348272Y-82095934D01*
X100073143Y-81967656D01*
X99659019Y-81644628D01*
X99562296Y-81159584D01*
X99911527Y-81159584D01*
X99935321Y-81511868D01*
X100283876Y-81763618D01*
X100665400Y-81721465D01*
X100838000Y-81421990D01*
X100816775Y-81366566D01*
X102405911Y-81366566D01*
X102458344Y-81720650D01*
X102783433Y-81744088D01*
X103174595Y-81497414D01*
X103251000Y-81276521D01*
X103092447Y-80953005D01*
X102758907Y-80934482D01*
X102463559Y-81198238D01*
X102405911Y-81366566D01*
X100816775Y-81366566D01*
X100668768Y-80980092D01*
X100561868Y-80885321D01*
X100181468Y-80873855D01*
X99911527Y-81159584D01*
X99562296Y-81159584D01*
X99545707Y-81076396D01*
X99667544Y-80620500D01*
X100908935Y-80620500D01*
X100960298Y-80764393D01*
X101319410Y-80974090D01*
X101804721Y-80939900D01*
X102171872Y-80708388D01*
X102235000Y-80521478D01*
X102030638Y-80178720D01*
X101576796Y-80036371D01*
X101112336Y-80154898D01*
X101036351Y-80218048D01*
X100908935Y-80620500D01*
X99667544Y-80620500D01*
X99721577Y-80418317D01*
X100145700Y-79864051D01*
X100366670Y-79864051D01*
X100426562Y-79996588D01*
X100569009Y-80010000D01*
X100913438Y-79825524D01*
X100963201Y-79758909D01*
X100929898Y-79641332D01*
X102213609Y-79641332D01*
X102236798Y-79758909D01*
X102508467Y-79969466D01*
X102799602Y-80004801D01*
X102870000Y-79910175D01*
X102670761Y-79747045D01*
X102475807Y-79659084D01*
X102213609Y-79641332D01*
X100929898Y-79641332D01*
X100922318Y-79614572D01*
X100724192Y-79659084D01*
X100366670Y-79864051D01*
X100145700Y-79864051D01*
X100175009Y-79825749D01*
X100237254Y-79774435D01*
X101081710Y-79362668D01*
X101969955Y-79323107D01*
X102775196Y-79608012D01*
D11*
%TO.C,J2*%
X119380000Y-80010000D02*
X119380000Y-81280000D01*
X118110000Y-80010000D02*
X119380000Y-80010000D01*
X110110000Y-82322929D02*
X110110000Y-82777071D01*
X110870000Y-82322929D02*
X110870000Y-82777071D01*
X110110000Y-84862929D02*
X110110000Y-85260000D01*
X110870000Y-84862929D02*
X110870000Y-85260000D01*
X110110000Y-93920000D02*
X110110000Y-87920000D01*
X110870000Y-93920000D02*
X110110000Y-93920000D01*
X110870000Y-87920000D02*
X110870000Y-93920000D01*
X111760000Y-85260000D02*
X111760000Y-87920000D01*
X112650000Y-82322929D02*
X112650000Y-82777071D01*
X113410000Y-82322929D02*
X113410000Y-82777071D01*
X112650000Y-84862929D02*
X112650000Y-85260000D01*
X113410000Y-84862929D02*
X113410000Y-85260000D01*
X112650000Y-93920000D02*
X112650000Y-87920000D01*
X113410000Y-93920000D02*
X112650000Y-93920000D01*
X113410000Y-87920000D02*
X113410000Y-93920000D01*
X114300000Y-85260000D02*
X114300000Y-87920000D01*
X115190000Y-82322929D02*
X115190000Y-82777071D01*
X115950000Y-82322929D02*
X115950000Y-82777071D01*
X115190000Y-84862929D02*
X115190000Y-85260000D01*
X115950000Y-84862929D02*
X115950000Y-85260000D01*
X115190000Y-93920000D02*
X115190000Y-87920000D01*
X115950000Y-93920000D02*
X115190000Y-93920000D01*
X115950000Y-87920000D02*
X115950000Y-93920000D01*
X116840000Y-85260000D02*
X116840000Y-87920000D01*
X117730000Y-82390000D02*
X117730000Y-82777071D01*
X118490000Y-82390000D02*
X118490000Y-82777071D01*
X117730000Y-84862929D02*
X117730000Y-85260000D01*
X118490000Y-84862929D02*
X118490000Y-85260000D01*
X117830000Y-87920000D02*
X117830000Y-93920000D01*
X117950000Y-87920000D02*
X117950000Y-93920000D01*
X118070000Y-87920000D02*
X118070000Y-93920000D01*
X118190000Y-87920000D02*
X118190000Y-93920000D01*
X118310000Y-87920000D02*
X118310000Y-93920000D01*
X118430000Y-87920000D02*
X118430000Y-93920000D01*
X117730000Y-93920000D02*
X117730000Y-87920000D01*
X118490000Y-93920000D02*
X117730000Y-93920000D01*
X118490000Y-87920000D02*
X118490000Y-93920000D01*
X119440000Y-87920000D02*
X119440000Y-85260000D01*
X109160000Y-87920000D02*
X119440000Y-87920000D01*
X109160000Y-85260000D02*
X109160000Y-87920000D01*
X119440000Y-85260000D02*
X109160000Y-85260000D01*
%TO.C,R1*%
X87300000Y-81280000D02*
X88250000Y-81280000D01*
X93040000Y-81280000D02*
X92090000Y-81280000D01*
X88250000Y-82200000D02*
X92090000Y-82200000D01*
X88250000Y-80360000D02*
X88250000Y-82200000D01*
X92090000Y-80360000D02*
X88250000Y-80360000D01*
X92090000Y-82200000D02*
X92090000Y-80360000D01*
%TO.C,R2*%
X92090000Y-84740000D02*
X92090000Y-82900000D01*
X92090000Y-82900000D02*
X88250000Y-82900000D01*
X88250000Y-82900000D02*
X88250000Y-84740000D01*
X88250000Y-84740000D02*
X92090000Y-84740000D01*
X93040000Y-83820000D02*
X92090000Y-83820000D01*
X87300000Y-83820000D02*
X88250000Y-83820000D01*
%TO.C,R3*%
X87300000Y-86360000D02*
X88250000Y-86360000D01*
X93040000Y-86360000D02*
X92090000Y-86360000D01*
X88250000Y-87280000D02*
X92090000Y-87280000D01*
X88250000Y-85440000D02*
X88250000Y-87280000D01*
X92090000Y-85440000D02*
X88250000Y-85440000D01*
X92090000Y-87280000D02*
X92090000Y-85440000D01*
%TO.C,R4*%
X92090000Y-89820000D02*
X92090000Y-87980000D01*
X92090000Y-87980000D02*
X88250000Y-87980000D01*
X88250000Y-87980000D02*
X88250000Y-89820000D01*
X88250000Y-89820000D02*
X92090000Y-89820000D01*
X93040000Y-88900000D02*
X92090000Y-88900000D01*
X87300000Y-88900000D02*
X88250000Y-88900000D01*
D12*
%TO.C,U1*%
X116195001Y-72175001D02*
X115695001Y-71675001D01*
X115645001Y-72175001D02*
X116195001Y-72175001D01*
X118195001Y-71675001D02*
X117695001Y-72175001D01*
X115695001Y-68175001D02*
X116195001Y-67675001D01*
X117695001Y-67675001D02*
X116195001Y-67675001D01*
X118195001Y-68175001D02*
X117695001Y-67675001D01*
X117945001Y-70675001D02*
X117945001Y-69175001D01*
X115945001Y-69175001D02*
X115945001Y-70675001D01*
X109945001Y-74925001D02*
X114945001Y-69925001D01*
X104945001Y-69925001D02*
X109945001Y-74925001D01*
X109945001Y-64925001D02*
X104945001Y-69925001D01*
X114945001Y-69925001D02*
X109945001Y-64925001D01*
X85165001Y-73735001D02*
X83895001Y-73735001D01*
X83895001Y-73735001D02*
X83895001Y-66115001D01*
X83895001Y-66115001D02*
X85165001Y-66115001D01*
X90245001Y-73735001D02*
X90245001Y-66115001D01*
X90245001Y-66115001D02*
X85165001Y-66115001D01*
X90245001Y-73735001D02*
X85165001Y-73735001D01*
X118195001Y-67675001D02*
X118185001Y-72175001D01*
X118185001Y-72175001D02*
X115645001Y-72175001D01*
X115645001Y-72175001D02*
X115645001Y-67675001D01*
X115645001Y-67675001D02*
X118185001Y-67675001D01*
X85165001Y-61035001D02*
X120725001Y-61035001D01*
X120725001Y-61035001D02*
X120725001Y-78815001D01*
X120725001Y-78815001D02*
X85165001Y-78815001D01*
X85165001Y-78815001D02*
X85165001Y-61035001D01*
D13*
G36*
X109132001Y-67346001D02*
G01*
X108878001Y-67092001D01*
X109259001Y-66838001D01*
X109513001Y-67092001D01*
X109132001Y-67346001D01*
G37*
X109132001Y-67346001D02*
X108878001Y-67092001D01*
X109259001Y-66838001D01*
X109513001Y-67092001D01*
X109132001Y-67346001D01*
G36*
X109513001Y-67727001D02*
G01*
X109259001Y-67473001D01*
X109640001Y-67219001D01*
X109894001Y-67473001D01*
X109513001Y-67727001D01*
G37*
X109513001Y-67727001D02*
X109259001Y-67473001D01*
X109640001Y-67219001D01*
X109894001Y-67473001D01*
X109513001Y-67727001D01*
G36*
X110148001Y-66584001D02*
G01*
X109894001Y-66330001D01*
X110275001Y-66076001D01*
X110529001Y-66330001D01*
X110148001Y-66584001D01*
G37*
X110148001Y-66584001D02*
X109894001Y-66330001D01*
X110275001Y-66076001D01*
X110529001Y-66330001D01*
X110148001Y-66584001D01*
G36*
X109386001Y-68489001D02*
G01*
X109132001Y-68235001D01*
X109513001Y-67981001D01*
X109767001Y-68235001D01*
X109386001Y-68489001D01*
G37*
X109386001Y-68489001D02*
X109132001Y-68235001D01*
X109513001Y-67981001D01*
X109767001Y-68235001D01*
X109386001Y-68489001D01*
G36*
X109640001Y-66965001D02*
G01*
X109386001Y-66711001D01*
X109767001Y-66457001D01*
X110021001Y-66711001D01*
X109640001Y-66965001D01*
G37*
X109640001Y-66965001D02*
X109386001Y-66711001D01*
X109767001Y-66457001D01*
X110021001Y-66711001D01*
X109640001Y-66965001D01*
G36*
X109767001Y-68870001D02*
G01*
X109513001Y-68616001D01*
X109894001Y-68362001D01*
X110148001Y-68616001D01*
X109767001Y-68870001D01*
G37*
X109767001Y-68870001D02*
X109513001Y-68616001D01*
X109894001Y-68362001D01*
X110148001Y-68616001D01*
X109767001Y-68870001D01*
G36*
X109005001Y-68108001D02*
G01*
X108751001Y-67854001D01*
X109132001Y-67600001D01*
X109386001Y-67854001D01*
X109005001Y-68108001D01*
G37*
X109005001Y-68108001D02*
X108751001Y-67854001D01*
X109132001Y-67600001D01*
X109386001Y-67854001D01*
X109005001Y-68108001D01*
G36*
X110021001Y-67346001D02*
G01*
X109767001Y-67092001D01*
X110148001Y-66838001D01*
X110402001Y-67092001D01*
X110021001Y-67346001D01*
G37*
X110021001Y-67346001D02*
X109767001Y-67092001D01*
X110148001Y-66838001D01*
X110402001Y-67092001D01*
X110021001Y-67346001D01*
D12*
X115945001Y-69175001D02*
G75*
G02*
X117945001Y-69175001I1000000J0D01*
G01*
X117945001Y-70675001D02*
G75*
G02*
X115945001Y-70675001I-1000000J0D01*
G01*
X106211667Y-70301667D02*
X106211667Y-69601667D01*
X106445001Y-70101667D01*
X106678334Y-69601667D01*
X106678334Y-70301667D01*
X107011667Y-70301667D02*
X107011667Y-69601667D01*
X107411667Y-70301667D02*
X107111667Y-69901667D01*
X107411667Y-69601667D02*
X107011667Y-70001667D01*
X108045001Y-70301667D02*
X107711667Y-70301667D01*
X107711667Y-69601667D01*
X108245001Y-69668334D02*
X108278334Y-69635001D01*
X108345001Y-69601667D01*
X108511667Y-69601667D01*
X108578334Y-69635001D01*
X108611667Y-69668334D01*
X108645001Y-69735001D01*
X108645001Y-69801667D01*
X108611667Y-69901667D01*
X108211667Y-70301667D01*
X108645001Y-70301667D01*
X109245001Y-69601667D02*
X109111667Y-69601667D01*
X109045001Y-69635001D01*
X109011667Y-69668334D01*
X108945001Y-69768334D01*
X108911667Y-69901667D01*
X108911667Y-70168334D01*
X108945001Y-70235001D01*
X108978334Y-70268334D01*
X109045001Y-70301667D01*
X109178334Y-70301667D01*
X109245001Y-70268334D01*
X109278334Y-70235001D01*
X109311667Y-70168334D01*
X109311667Y-70001667D01*
X109278334Y-69935001D01*
X109245001Y-69901667D01*
X109178334Y-69868334D01*
X109045001Y-69868334D01*
X108978334Y-69901667D01*
X108945001Y-69935001D01*
X108911667Y-70001667D01*
X109545001Y-69601667D02*
X110011667Y-69601667D01*
X109545001Y-70301667D01*
X110011667Y-70301667D01*
X110578334Y-69601667D02*
X110445001Y-69601667D01*
X110378334Y-69635001D01*
X110345001Y-69668334D01*
X110278334Y-69768334D01*
X110245001Y-69901667D01*
X110245001Y-70168334D01*
X110278334Y-70235001D01*
X110311667Y-70268334D01*
X110378334Y-70301667D01*
X110511667Y-70301667D01*
X110578334Y-70268334D01*
X110611667Y-70235001D01*
X110645001Y-70168334D01*
X110645001Y-70001667D01*
X110611667Y-69935001D01*
X110578334Y-69901667D01*
X110511667Y-69868334D01*
X110378334Y-69868334D01*
X110311667Y-69901667D01*
X110278334Y-69935001D01*
X110245001Y-70001667D01*
X111245001Y-69835001D02*
X111245001Y-70301667D01*
X111078334Y-69568334D02*
X110911667Y-70068334D01*
X111345001Y-70068334D01*
X111511667Y-69601667D02*
X111745001Y-70301667D01*
X111978334Y-69601667D01*
X112445001Y-69935001D02*
X112211667Y-69935001D01*
X112211667Y-70301667D02*
X112211667Y-69601667D01*
X112545001Y-69601667D01*
X112711667Y-69601667D02*
X113111667Y-69601667D01*
X112911667Y-70301667D02*
X112911667Y-69601667D01*
X113645001Y-69835001D02*
X113645001Y-70301667D01*
X113478334Y-69568334D02*
X113311667Y-70068334D01*
X113745001Y-70068334D01*
%TD*%
M02*
