%TF.GenerationSoftware,KiCad,Pcbnew,(5.1.10)-1*%
%TF.CreationDate,2021-05-24T22:46:13-05:00*%
%TF.ProjectId,mario2,6d617269-6f32-42e6-9b69-6361645f7063,rev?*%
%TF.SameCoordinates,Original*%
%TF.FileFunction,Legend,Bot*%
%TF.FilePolarity,Positive*%
%FSLAX46Y46*%
G04 Gerber Fmt 4.6, Leading zero omitted, Abs format (unit mm)*
G04 Created by KiCad (PCBNEW (5.1.10)-1) date 2021-05-24 22:46:13*
%MOMM*%
%LPD*%
G01*
G04 APERTURE LIST*
%ADD10C,0.150000*%
G04 APERTURE END LIST*
D10*
X99590952Y-75334761D02*
X99495714Y-75382380D01*
X99305238Y-75382380D01*
X99210000Y-75334761D01*
X99162380Y-75239523D01*
X99162380Y-75191904D01*
X99210000Y-75096666D01*
X99305238Y-75049047D01*
X99448095Y-75049047D01*
X99543333Y-75001428D01*
X99590952Y-74906190D01*
X99590952Y-74858571D01*
X99543333Y-74763333D01*
X99448095Y-74715714D01*
X99305238Y-74715714D01*
X99210000Y-74763333D01*
X98876666Y-74715714D02*
X98495714Y-74715714D01*
X98733809Y-74382380D02*
X98733809Y-75239523D01*
X98686190Y-75334761D01*
X98590952Y-75382380D01*
X98495714Y-75382380D01*
X97733809Y-75382380D02*
X97733809Y-74858571D01*
X97781428Y-74763333D01*
X97876666Y-74715714D01*
X98067142Y-74715714D01*
X98162380Y-74763333D01*
X97733809Y-75334761D02*
X97829047Y-75382380D01*
X98067142Y-75382380D01*
X98162380Y-75334761D01*
X98210000Y-75239523D01*
X98210000Y-75144285D01*
X98162380Y-75049047D01*
X98067142Y-75001428D01*
X97829047Y-75001428D01*
X97733809Y-74953809D01*
X97257619Y-75382380D02*
X97257619Y-74715714D01*
X97257619Y-74810952D02*
X97210000Y-74763333D01*
X97114761Y-74715714D01*
X96971904Y-74715714D01*
X96876666Y-74763333D01*
X96829047Y-74858571D01*
X96829047Y-75382380D01*
X96829047Y-74858571D02*
X96781428Y-74763333D01*
X96686190Y-74715714D01*
X96543333Y-74715714D01*
X96448095Y-74763333D01*
X96400476Y-74858571D01*
X96400476Y-75382380D01*
X95924285Y-75382380D02*
X95924285Y-74715714D01*
X95924285Y-74382380D02*
X95971904Y-74430000D01*
X95924285Y-74477619D01*
X95876666Y-74430000D01*
X95924285Y-74382380D01*
X95924285Y-74477619D01*
X95448095Y-74715714D02*
X95448095Y-75382380D01*
X95448095Y-74810952D02*
X95400476Y-74763333D01*
X95305238Y-74715714D01*
X95162380Y-74715714D01*
X95067142Y-74763333D01*
X95019523Y-74858571D01*
X95019523Y-75382380D01*
X94114761Y-75382380D02*
X94114761Y-74858571D01*
X94162380Y-74763333D01*
X94257619Y-74715714D01*
X94448095Y-74715714D01*
X94543333Y-74763333D01*
X94114761Y-75334761D02*
X94210000Y-75382380D01*
X94448095Y-75382380D01*
X94543333Y-75334761D01*
X94590952Y-75239523D01*
X94590952Y-75144285D01*
X94543333Y-75049047D01*
X94448095Y-75001428D01*
X94210000Y-75001428D01*
X94114761Y-74953809D01*
X93638571Y-74715714D02*
X93638571Y-75382380D01*
X93638571Y-74810952D02*
X93590952Y-74763333D01*
X93495714Y-74715714D01*
X93352857Y-74715714D01*
X93257619Y-74763333D01*
X93210000Y-74858571D01*
X93210000Y-75382380D01*
X92305238Y-75382380D02*
X92305238Y-74858571D01*
X92352857Y-74763333D01*
X92448095Y-74715714D01*
X92638571Y-74715714D01*
X92733809Y-74763333D01*
X92305238Y-75334761D02*
X92400476Y-75382380D01*
X92638571Y-75382380D01*
X92733809Y-75334761D01*
X92781428Y-75239523D01*
X92781428Y-75144285D01*
X92733809Y-75049047D01*
X92638571Y-75001428D01*
X92400476Y-75001428D01*
X92305238Y-74953809D01*
X91971904Y-74715714D02*
X91590952Y-74715714D01*
X91829047Y-74382380D02*
X91829047Y-75239523D01*
X91781428Y-75334761D01*
X91686190Y-75382380D01*
X91590952Y-75382380D01*
X91257619Y-75382380D02*
X91257619Y-74715714D01*
X91257619Y-74382380D02*
X91305238Y-74430000D01*
X91257619Y-74477619D01*
X91210000Y-74430000D01*
X91257619Y-74382380D01*
X91257619Y-74477619D01*
X90638571Y-75382380D02*
X90733809Y-75334761D01*
X90781428Y-75287142D01*
X90829047Y-75191904D01*
X90829047Y-74906190D01*
X90781428Y-74810952D01*
X90733809Y-74763333D01*
X90638571Y-74715714D01*
X90495714Y-74715714D01*
X90400476Y-74763333D01*
X90352857Y-74810952D01*
X90305238Y-74906190D01*
X90305238Y-75191904D01*
X90352857Y-75287142D01*
X90400476Y-75334761D01*
X90495714Y-75382380D01*
X90638571Y-75382380D01*
X89876666Y-74715714D02*
X89876666Y-75382380D01*
X89876666Y-74810952D02*
X89829047Y-74763333D01*
X89733809Y-74715714D01*
X89590952Y-74715714D01*
X89495714Y-74763333D01*
X89448095Y-74858571D01*
X89448095Y-75382380D01*
X88971904Y-75287142D02*
X88924285Y-75334761D01*
X88971904Y-75382380D01*
X89019523Y-75334761D01*
X88971904Y-75287142D01*
X88971904Y-75382380D01*
X88067142Y-75334761D02*
X88162380Y-75382380D01*
X88352857Y-75382380D01*
X88448095Y-75334761D01*
X88495714Y-75287142D01*
X88543333Y-75191904D01*
X88543333Y-74906190D01*
X88495714Y-74810952D01*
X88448095Y-74763333D01*
X88352857Y-74715714D01*
X88162380Y-74715714D01*
X88067142Y-74763333D01*
X87495714Y-75382380D02*
X87590952Y-75334761D01*
X87638571Y-75287142D01*
X87686190Y-75191904D01*
X87686190Y-74906190D01*
X87638571Y-74810952D01*
X87590952Y-74763333D01*
X87495714Y-74715714D01*
X87352857Y-74715714D01*
X87257619Y-74763333D01*
X87210000Y-74810952D01*
X87162380Y-74906190D01*
X87162380Y-75191904D01*
X87210000Y-75287142D01*
X87257619Y-75334761D01*
X87352857Y-75382380D01*
X87495714Y-75382380D01*
X86733809Y-75382380D02*
X86733809Y-74715714D01*
X86733809Y-74810952D02*
X86686190Y-74763333D01*
X86590952Y-74715714D01*
X86448095Y-74715714D01*
X86352857Y-74763333D01*
X86305238Y-74858571D01*
X86305238Y-75382380D01*
X86305238Y-74858571D02*
X86257619Y-74763333D01*
X86162380Y-74715714D01*
X86019523Y-74715714D01*
X85924285Y-74763333D01*
X85876666Y-74858571D01*
X85876666Y-75382380D01*
X114879047Y-65352380D02*
X114879047Y-64352380D01*
X114545714Y-65066666D01*
X114212380Y-64352380D01*
X114212380Y-65352380D01*
X113783809Y-65066666D02*
X113307619Y-65066666D01*
X113879047Y-65352380D02*
X113545714Y-64352380D01*
X113212380Y-65352380D01*
X112307619Y-65352380D02*
X112640952Y-64876190D01*
X112879047Y-65352380D02*
X112879047Y-64352380D01*
X112498095Y-64352380D01*
X112402857Y-64400000D01*
X112355238Y-64447619D01*
X112307619Y-64542857D01*
X112307619Y-64685714D01*
X112355238Y-64780952D01*
X112402857Y-64828571D01*
X112498095Y-64876190D01*
X112879047Y-64876190D01*
X111879047Y-65257142D02*
X111831428Y-65304761D01*
X111879047Y-65352380D01*
X111926666Y-65304761D01*
X111879047Y-65257142D01*
X111879047Y-65352380D01*
X111402857Y-65352380D02*
X111402857Y-64352380D01*
X110736190Y-64352380D02*
X110545714Y-64352380D01*
X110450476Y-64400000D01*
X110355238Y-64495238D01*
X110307619Y-64685714D01*
X110307619Y-65019047D01*
X110355238Y-65209523D01*
X110450476Y-65304761D01*
X110545714Y-65352380D01*
X110736190Y-65352380D01*
X110831428Y-65304761D01*
X110926666Y-65209523D01*
X110974285Y-65019047D01*
X110974285Y-64685714D01*
X110926666Y-64495238D01*
X110831428Y-64400000D01*
X110736190Y-64352380D01*
X109164761Y-64447619D02*
X109117142Y-64400000D01*
X109021904Y-64352380D01*
X108783809Y-64352380D01*
X108688571Y-64400000D01*
X108640952Y-64447619D01*
X108593333Y-64542857D01*
X108593333Y-64638095D01*
X108640952Y-64780952D01*
X109212380Y-65352380D01*
X108593333Y-65352380D01*
X118093333Y-67002380D02*
X118093333Y-66335714D01*
X118093333Y-66430952D02*
X118045714Y-66383333D01*
X117950476Y-66335714D01*
X117807619Y-66335714D01*
X117712380Y-66383333D01*
X117664761Y-66478571D01*
X117664761Y-67002380D01*
X117664761Y-66478571D02*
X117617142Y-66383333D01*
X117521904Y-66335714D01*
X117379047Y-66335714D01*
X117283809Y-66383333D01*
X117236190Y-66478571D01*
X117236190Y-67002380D01*
X116331428Y-67002380D02*
X116331428Y-66478571D01*
X116379047Y-66383333D01*
X116474285Y-66335714D01*
X116664761Y-66335714D01*
X116760000Y-66383333D01*
X116331428Y-66954761D02*
X116426666Y-67002380D01*
X116664761Y-67002380D01*
X116760000Y-66954761D01*
X116807619Y-66859523D01*
X116807619Y-66764285D01*
X116760000Y-66669047D01*
X116664761Y-66621428D01*
X116426666Y-66621428D01*
X116331428Y-66573809D01*
X115426666Y-67002380D02*
X115426666Y-66002380D01*
X115426666Y-66954761D02*
X115521904Y-67002380D01*
X115712380Y-67002380D01*
X115807619Y-66954761D01*
X115855238Y-66907142D01*
X115902857Y-66811904D01*
X115902857Y-66526190D01*
X115855238Y-66430952D01*
X115807619Y-66383333D01*
X115712380Y-66335714D01*
X115521904Y-66335714D01*
X115426666Y-66383333D01*
X114569523Y-66954761D02*
X114664761Y-67002380D01*
X114855238Y-67002380D01*
X114950476Y-66954761D01*
X114998095Y-66859523D01*
X114998095Y-66478571D01*
X114950476Y-66383333D01*
X114855238Y-66335714D01*
X114664761Y-66335714D01*
X114569523Y-66383333D01*
X114521904Y-66478571D01*
X114521904Y-66573809D01*
X114998095Y-66669047D01*
X113426666Y-66335714D02*
X113236190Y-67002380D01*
X113045714Y-66526190D01*
X112855238Y-67002380D01*
X112664761Y-66335714D01*
X112283809Y-67002380D02*
X112283809Y-66335714D01*
X112283809Y-66002380D02*
X112331428Y-66050000D01*
X112283809Y-66097619D01*
X112236190Y-66050000D01*
X112283809Y-66002380D01*
X112283809Y-66097619D01*
X111950476Y-66335714D02*
X111569523Y-66335714D01*
X111807619Y-66002380D02*
X111807619Y-66859523D01*
X111760000Y-66954761D01*
X111664761Y-67002380D01*
X111569523Y-67002380D01*
X111236190Y-67002380D02*
X111236190Y-66002380D01*
X110807619Y-67002380D02*
X110807619Y-66478571D01*
X110855238Y-66383333D01*
X110950476Y-66335714D01*
X111093333Y-66335714D01*
X111188571Y-66383333D01*
X111236190Y-66430952D01*
X108807619Y-66335714D02*
X109569523Y-66621428D01*
X108807619Y-66907142D01*
X108426666Y-66002380D02*
X107807619Y-66002380D01*
X108140952Y-66383333D01*
X107998095Y-66383333D01*
X107902857Y-66430952D01*
X107855238Y-66478571D01*
X107807619Y-66573809D01*
X107807619Y-66811904D01*
X107855238Y-66907142D01*
X107902857Y-66954761D01*
X107998095Y-67002380D01*
X108283809Y-67002380D01*
X108379047Y-66954761D01*
X108426666Y-66907142D01*
X106617142Y-67002380D02*
X106617142Y-66002380D01*
X106617142Y-66383333D02*
X106521904Y-66335714D01*
X106331428Y-66335714D01*
X106236190Y-66383333D01*
X106188571Y-66430952D01*
X106140952Y-66526190D01*
X106140952Y-66811904D01*
X106188571Y-66907142D01*
X106236190Y-66954761D01*
X106331428Y-67002380D01*
X106521904Y-67002380D01*
X106617142Y-66954761D01*
X105807619Y-66335714D02*
X105569523Y-67002380D01*
X105331428Y-66335714D02*
X105569523Y-67002380D01*
X105664761Y-67240476D01*
X105712380Y-67288095D01*
X105807619Y-67335714D01*
X113855238Y-68652380D02*
X113855238Y-67652380D01*
X113855238Y-68033333D02*
X113760000Y-67985714D01*
X113569523Y-67985714D01*
X113474285Y-68033333D01*
X113426666Y-68080952D01*
X113379047Y-68176190D01*
X113379047Y-68461904D01*
X113426666Y-68557142D01*
X113474285Y-68604761D01*
X113569523Y-68652380D01*
X113760000Y-68652380D01*
X113855238Y-68604761D01*
X112521904Y-68652380D02*
X112521904Y-68128571D01*
X112569523Y-68033333D01*
X112664761Y-67985714D01*
X112855238Y-67985714D01*
X112950476Y-68033333D01*
X112521904Y-68604761D02*
X112617142Y-68652380D01*
X112855238Y-68652380D01*
X112950476Y-68604761D01*
X112998095Y-68509523D01*
X112998095Y-68414285D01*
X112950476Y-68319047D01*
X112855238Y-68271428D01*
X112617142Y-68271428D01*
X112521904Y-68223809D01*
X112045714Y-67985714D02*
X112045714Y-68652380D01*
X112045714Y-68080952D02*
X111998095Y-68033333D01*
X111902857Y-67985714D01*
X111760000Y-67985714D01*
X111664761Y-68033333D01*
X111617142Y-68128571D01*
X111617142Y-68652380D01*
X110712380Y-68652380D02*
X110712380Y-67652380D01*
X110712380Y-68604761D02*
X110807619Y-68652380D01*
X110998095Y-68652380D01*
X111093333Y-68604761D01*
X111140952Y-68557142D01*
X111188571Y-68461904D01*
X111188571Y-68176190D01*
X111140952Y-68080952D01*
X111093333Y-68033333D01*
X110998095Y-67985714D01*
X110807619Y-67985714D01*
X110712380Y-68033333D01*
X110236190Y-68652380D02*
X110236190Y-67985714D01*
X110236190Y-67652380D02*
X110283809Y-67700000D01*
X110236190Y-67747619D01*
X110188571Y-67700000D01*
X110236190Y-67652380D01*
X110236190Y-67747619D01*
X109902857Y-67985714D02*
X109521904Y-67985714D01*
X109760000Y-67652380D02*
X109760000Y-68509523D01*
X109712380Y-68604761D01*
X109617142Y-68652380D01*
X109521904Y-68652380D01*
X113855238Y-69635714D02*
X113331428Y-69635714D01*
X113855238Y-70302380D01*
X113331428Y-70302380D01*
X112521904Y-70302380D02*
X112521904Y-69778571D01*
X112569523Y-69683333D01*
X112664761Y-69635714D01*
X112855238Y-69635714D01*
X112950476Y-69683333D01*
X112521904Y-70254761D02*
X112617142Y-70302380D01*
X112855238Y-70302380D01*
X112950476Y-70254761D01*
X112998095Y-70159523D01*
X112998095Y-70064285D01*
X112950476Y-69969047D01*
X112855238Y-69921428D01*
X112617142Y-69921428D01*
X112521904Y-69873809D01*
X112045714Y-69635714D02*
X112045714Y-70302380D01*
X112045714Y-69730952D02*
X111998095Y-69683333D01*
X111902857Y-69635714D01*
X111760000Y-69635714D01*
X111664761Y-69683333D01*
X111617142Y-69778571D01*
X111617142Y-70302380D01*
X111140952Y-70302380D02*
X111140952Y-69635714D01*
X111140952Y-69302380D02*
X111188571Y-69350000D01*
X111140952Y-69397619D01*
X111093333Y-69350000D01*
X111140952Y-69302380D01*
X111140952Y-69397619D01*
X110283809Y-70254761D02*
X110379047Y-70302380D01*
X110569523Y-70302380D01*
X110664761Y-70254761D01*
X110712380Y-70159523D01*
X110712380Y-69778571D01*
X110664761Y-69683333D01*
X110569523Y-69635714D01*
X110379047Y-69635714D01*
X110283809Y-69683333D01*
X110236190Y-69778571D01*
X110236190Y-69873809D01*
X110712380Y-69969047D01*
X109664761Y-70302380D02*
X109760000Y-70254761D01*
X109807619Y-70159523D01*
X109807619Y-69302380D01*
X114140952Y-71952380D02*
X114140952Y-71285714D01*
X114140952Y-70952380D02*
X114188571Y-71000000D01*
X114140952Y-71047619D01*
X114093333Y-71000000D01*
X114140952Y-70952380D01*
X114140952Y-71047619D01*
X113236190Y-71952380D02*
X113236190Y-71428571D01*
X113283809Y-71333333D01*
X113379047Y-71285714D01*
X113569523Y-71285714D01*
X113664761Y-71333333D01*
X113236190Y-71904761D02*
X113331428Y-71952380D01*
X113569523Y-71952380D01*
X113664761Y-71904761D01*
X113712380Y-71809523D01*
X113712380Y-71714285D01*
X113664761Y-71619047D01*
X113569523Y-71571428D01*
X113331428Y-71571428D01*
X113236190Y-71523809D01*
X112760000Y-71952380D02*
X112760000Y-71285714D01*
X112760000Y-71380952D02*
X112712380Y-71333333D01*
X112617142Y-71285714D01*
X112474285Y-71285714D01*
X112379047Y-71333333D01*
X112331428Y-71428571D01*
X112331428Y-71952380D01*
X112331428Y-71428571D02*
X112283809Y-71333333D01*
X112188571Y-71285714D01*
X112045714Y-71285714D01*
X111950476Y-71333333D01*
X111902857Y-71428571D01*
X111902857Y-71952380D01*
X111045714Y-71904761D02*
X111140952Y-71952380D01*
X111331428Y-71952380D01*
X111426666Y-71904761D01*
X111474285Y-71809523D01*
X111474285Y-71428571D01*
X111426666Y-71333333D01*
X111331428Y-71285714D01*
X111140952Y-71285714D01*
X111045714Y-71333333D01*
X110998095Y-71428571D01*
X110998095Y-71523809D01*
X111474285Y-71619047D01*
X110664761Y-71285714D02*
X110426666Y-71952380D01*
X110188571Y-71285714D01*
X109807619Y-71285714D02*
X109807619Y-71952380D01*
X109807619Y-71380952D02*
X109760000Y-71333333D01*
X109664761Y-71285714D01*
X109521904Y-71285714D01*
X109426666Y-71333333D01*
X109379047Y-71428571D01*
X109379047Y-71952380D01*
X113998095Y-72935714D02*
X113807619Y-73602380D01*
X113617142Y-73126190D01*
X113426666Y-73602380D01*
X113236190Y-72935714D01*
X112855238Y-73602380D02*
X112855238Y-72935714D01*
X112855238Y-72602380D02*
X112902857Y-72650000D01*
X112855238Y-72697619D01*
X112807619Y-72650000D01*
X112855238Y-72602380D01*
X112855238Y-72697619D01*
X111950476Y-73602380D02*
X111950476Y-72602380D01*
X111950476Y-73554761D02*
X112045714Y-73602380D01*
X112236190Y-73602380D01*
X112331428Y-73554761D01*
X112379047Y-73507142D01*
X112426666Y-73411904D01*
X112426666Y-73126190D01*
X112379047Y-73030952D01*
X112331428Y-72983333D01*
X112236190Y-72935714D01*
X112045714Y-72935714D01*
X111950476Y-72983333D01*
X111045714Y-72935714D02*
X111045714Y-73745238D01*
X111093333Y-73840476D01*
X111140952Y-73888095D01*
X111236190Y-73935714D01*
X111379047Y-73935714D01*
X111474285Y-73888095D01*
X111045714Y-73554761D02*
X111140952Y-73602380D01*
X111331428Y-73602380D01*
X111426666Y-73554761D01*
X111474285Y-73507142D01*
X111521904Y-73411904D01*
X111521904Y-73126190D01*
X111474285Y-73030952D01*
X111426666Y-72983333D01*
X111331428Y-72935714D01*
X111140952Y-72935714D01*
X111045714Y-72983333D01*
X110188571Y-73554761D02*
X110283809Y-73602380D01*
X110474285Y-73602380D01*
X110569523Y-73554761D01*
X110617142Y-73459523D01*
X110617142Y-73078571D01*
X110569523Y-72983333D01*
X110474285Y-72935714D01*
X110283809Y-72935714D01*
X110188571Y-72983333D01*
X110140952Y-73078571D01*
X110140952Y-73173809D01*
X110617142Y-73269047D01*
X109855238Y-72935714D02*
X109474285Y-72935714D01*
X109712380Y-72602380D02*
X109712380Y-73459523D01*
X109664761Y-73554761D01*
X109569523Y-73602380D01*
X109474285Y-73602380D01*
X114855238Y-74585714D02*
X114855238Y-75442857D01*
X114902857Y-75538095D01*
X114998095Y-75585714D01*
X115045714Y-75585714D01*
X114855238Y-74252380D02*
X114902857Y-74300000D01*
X114855238Y-74347619D01*
X114807619Y-74300000D01*
X114855238Y-74252380D01*
X114855238Y-74347619D01*
X114236190Y-75252380D02*
X114331428Y-75204761D01*
X114379047Y-75157142D01*
X114426666Y-75061904D01*
X114426666Y-74776190D01*
X114379047Y-74680952D01*
X114331428Y-74633333D01*
X114236190Y-74585714D01*
X114093333Y-74585714D01*
X113998095Y-74633333D01*
X113950476Y-74680952D01*
X113902857Y-74776190D01*
X113902857Y-75061904D01*
X113950476Y-75157142D01*
X113998095Y-75204761D01*
X114093333Y-75252380D01*
X114236190Y-75252380D01*
X113521904Y-75204761D02*
X113426666Y-75252380D01*
X113236190Y-75252380D01*
X113140952Y-75204761D01*
X113093333Y-75109523D01*
X113093333Y-75061904D01*
X113140952Y-74966666D01*
X113236190Y-74919047D01*
X113379047Y-74919047D01*
X113474285Y-74871428D01*
X113521904Y-74776190D01*
X113521904Y-74728571D01*
X113474285Y-74633333D01*
X113379047Y-74585714D01*
X113236190Y-74585714D01*
X113140952Y-74633333D01*
X112664761Y-75252380D02*
X112664761Y-74252380D01*
X112236190Y-75252380D02*
X112236190Y-74728571D01*
X112283809Y-74633333D01*
X112379047Y-74585714D01*
X112521904Y-74585714D01*
X112617142Y-74633333D01*
X112664761Y-74680952D01*
X111760000Y-75252380D02*
X111760000Y-74252380D01*
X111331428Y-75252380D02*
X111331428Y-74728571D01*
X111379047Y-74633333D01*
X111474285Y-74585714D01*
X111617142Y-74585714D01*
X111712380Y-74633333D01*
X111760000Y-74680952D01*
X110474285Y-75204761D02*
X110569523Y-75252380D01*
X110760000Y-75252380D01*
X110855238Y-75204761D01*
X110902857Y-75109523D01*
X110902857Y-74728571D01*
X110855238Y-74633333D01*
X110760000Y-74585714D01*
X110569523Y-74585714D01*
X110474285Y-74633333D01*
X110426666Y-74728571D01*
X110426666Y-74823809D01*
X110902857Y-74919047D01*
X109569523Y-75252380D02*
X109569523Y-74728571D01*
X109617142Y-74633333D01*
X109712380Y-74585714D01*
X109902857Y-74585714D01*
X109998095Y-74633333D01*
X109569523Y-75204761D02*
X109664761Y-75252380D01*
X109902857Y-75252380D01*
X109998095Y-75204761D01*
X110045714Y-75109523D01*
X110045714Y-75014285D01*
X109998095Y-74919047D01*
X109902857Y-74871428D01*
X109664761Y-74871428D01*
X109569523Y-74823809D01*
X108664761Y-75252380D02*
X108664761Y-74252380D01*
X108664761Y-75204761D02*
X108760000Y-75252380D01*
X108950476Y-75252380D01*
X109045714Y-75204761D01*
X109093333Y-75157142D01*
X109140952Y-75061904D01*
X109140952Y-74776190D01*
X109093333Y-74680952D01*
X109045714Y-74633333D01*
X108950476Y-74585714D01*
X108760000Y-74585714D01*
X108664761Y-74633333D01*
M02*
