M48
; DRILL file {KiCad (5.1.10)-1} date 05/24/21 22:58:38
; FORMAT={-:-/ absolute / inch / decimal}
; #@! TF.CreationDate,2021-05-24T22:58:38-05:00
; #@! TF.GenerationSoftware,Kicad,Pcbnew,(5.1.10)-1
FMAT,2
INCH
T1C0.0276
T2C0.0394
T3C0.0433
T4C0.1693
%
G90
G05
T1
X3.4Y-3.2
X3.4Y-3.3
X3.4Y-3.4
X3.4Y-3.5
X3.7Y-3.2
X3.7Y-3.3
X3.7Y-3.4
X3.7Y-3.5
T2
X4.35Y-3.2
X4.35Y-3.3
X4.45Y-3.2
X4.45Y-3.3
X4.55Y-3.2
X4.55Y-3.3
X4.65Y-3.2
X4.65Y-3.3
T3
X3.403Y-2.453
X3.403Y-3.053
X3.41Y-2.765
X3.41Y-2.843
X3.503Y-2.453
X3.503Y-2.553
X3.503Y-3.053
X3.603Y-2.453
X3.603Y-3.053
X3.703Y-2.453
X3.703Y-2.553
X3.703Y-3.053
X3.803Y-2.453
X3.803Y-2.553
X3.803Y-3.053
X3.903Y-2.453
X3.903Y-2.553
X3.903Y-3.053
X4.003Y-2.453
X4.003Y-3.053
X4.103Y-2.453
X4.103Y-3.053
X4.203Y-2.453
X4.203Y-3.053
X4.303Y-2.453
X4.303Y-3.053
X4.403Y-2.453
X4.403Y-3.053
X4.503Y-2.453
X4.503Y-3.053
X4.603Y-2.453
X4.603Y-3.053
X4.703Y-2.453
X4.703Y-2.553
X4.703Y-2.653
X4.703Y-2.753
X4.703Y-2.853
X4.703Y-2.953
X4.703Y-3.053
T4
X3.55Y-2.2
X4.0Y-3.5
X4.55Y-2.2
T0
M30
