%TF.GenerationSoftware,KiCad,Pcbnew,(5.1.10)-1*%
%TF.CreationDate,2021-05-24T22:58:33-05:00*%
%TF.ProjectId,mario2,6d617269-6f32-42e6-9b69-6361645f7063,rev?*%
%TF.SameCoordinates,Original*%
%TF.FileFunction,Copper,L2,Bot*%
%TF.FilePolarity,Positive*%
%FSLAX46Y46*%
G04 Gerber Fmt 4.6, Leading zero omitted, Abs format (unit mm)*
G04 Created by KiCad (PCBNEW (5.1.10)-1) date 2021-05-24 22:58:33*
%MOMM*%
%LPD*%
G01*
G04 APERTURE LIST*
%TA.AperFunction,ComponentPad*%
%ADD10R,1.700000X1.700000*%
%TD*%
%TA.AperFunction,ComponentPad*%
%ADD11O,1.700000X1.700000*%
%TD*%
%TA.AperFunction,ComponentPad*%
%ADD12C,1.400000*%
%TD*%
%TA.AperFunction,ComponentPad*%
%ADD13O,1.400000X1.400000*%
%TD*%
%TA.AperFunction,ComponentPad*%
%ADD14C,1.600000*%
%TD*%
%TA.AperFunction,ComponentPad*%
%ADD15R,1.600000X1.600000*%
%TD*%
%TA.AperFunction,Conductor*%
%ADD16C,0.250000*%
%TD*%
G04 APERTURE END LIST*
D10*
%TO.P,J2,1*%
%TO.N,/FSR_4*%
X118110000Y-81280000D03*
D11*
%TO.P,J2,2*%
%TO.N,/3.3v*%
X118110000Y-83820000D03*
%TO.P,J2,3*%
%TO.N,/FSR_3*%
X115570000Y-81280000D03*
%TO.P,J2,4*%
%TO.N,/3.3v*%
X115570000Y-83820000D03*
%TO.P,J2,5*%
%TO.N,/FSR_2*%
X113030000Y-81280000D03*
%TO.P,J2,6*%
%TO.N,/3.3v*%
X113030000Y-83820000D03*
%TO.P,J2,7*%
%TO.N,/FSR_1*%
X110490000Y-81280000D03*
%TO.P,J2,8*%
%TO.N,/3.3v*%
X110490000Y-83820000D03*
%TD*%
D12*
%TO.P,R1,1*%
%TO.N,/FSR_4*%
X93980000Y-81280000D03*
D13*
%TO.P,R1,2*%
%TO.N,/GND*%
X86360000Y-81280000D03*
%TD*%
%TO.P,R2,2*%
%TO.N,/GND*%
X86360000Y-83820000D03*
D12*
%TO.P,R2,1*%
%TO.N,/FSR_3*%
X93980000Y-83820000D03*
%TD*%
%TO.P,R3,1*%
%TO.N,/FSR_2*%
X93980000Y-86360000D03*
D13*
%TO.P,R3,2*%
%TO.N,/GND*%
X86360000Y-86360000D03*
%TD*%
%TO.P,R4,2*%
%TO.N,/GND*%
X86360000Y-88900000D03*
D12*
%TO.P,R4,1*%
%TO.N,/FSR_1*%
X93980000Y-88900000D03*
%TD*%
D14*
%TO.P,U1,17*%
%TO.N,Net-(U1-Pad17)*%
X119455001Y-69925001D03*
%TO.P,U1,18*%
%TO.N,Net-(U1-Pad18)*%
X119455001Y-67385001D03*
%TO.P,U1,19*%
%TO.N,Net-(U1-Pad19)*%
X119455001Y-64845001D03*
%TO.P,U1,20*%
%TO.N,Net-(U1-Pad20)*%
X119455001Y-62305001D03*
%TO.P,U1,16*%
%TO.N,Net-(U1-Pad16)*%
X119455001Y-72465001D03*
%TO.P,U1,15*%
%TO.N,Net-(U1-Pad15)*%
X119455001Y-75005001D03*
%TO.P,U1,14*%
%TO.N,Net-(U1-Pad14)*%
X119455001Y-77545001D03*
%TO.P,U1,21*%
%TO.N,Net-(U1-Pad21)*%
X116915001Y-62305001D03*
%TO.P,U1,22*%
%TO.N,Net-(U1-Pad22)*%
X114375001Y-62305001D03*
%TO.P,U1,23*%
%TO.N,Net-(U1-Pad23)*%
X111835001Y-62305001D03*
%TO.P,U1,24*%
%TO.N,Net-(U1-Pad24)*%
X109295001Y-62305001D03*
%TO.P,U1,25*%
%TO.N,Net-(U1-Pad25)*%
X106755001Y-62305001D03*
%TO.P,U1,26*%
%TO.N,Net-(U1-Pad26)*%
X104215001Y-62305001D03*
%TO.P,U1,27*%
%TO.N,/FSR_4*%
X101675001Y-62305001D03*
%TO.P,U1,28*%
%TO.N,/FSR_3*%
X99135001Y-62305001D03*
%TO.P,U1,29*%
%TO.N,/FSR_2*%
X96595001Y-62305001D03*
%TO.P,U1,30*%
%TO.N,/FSR_1*%
X94055001Y-62305001D03*
%TO.P,U1,31*%
%TO.N,/3.3v*%
X91515001Y-62305001D03*
%TO.P,U1,32*%
%TO.N,Net-(U1-Pad32)*%
X88975001Y-62305001D03*
%TO.P,U1,33*%
%TO.N,Net-(U1-Pad33)*%
X86435001Y-62305001D03*
%TO.P,U1,34*%
%TO.N,Net-(U1-Pad34)*%
X88975001Y-64845001D03*
%TO.P,U1,35*%
%TO.N,Net-(U1-Pad35)*%
X94055001Y-64845001D03*
%TO.P,U1,36*%
%TO.N,Net-(U1-Pad36)*%
X96595001Y-64845001D03*
%TO.P,U1,37*%
%TO.N,Net-(U1-Pad37)*%
X99135001Y-64845001D03*
%TO.P,U1,13*%
%TO.N,Net-(U1-Pad13)*%
X116915001Y-77545001D03*
%TO.P,U1,12*%
%TO.N,Net-(U1-Pad12)*%
X114375001Y-77545001D03*
%TO.P,U1,11*%
%TO.N,Net-(U1-Pad11)*%
X111835001Y-77545001D03*
%TO.P,U1,10*%
%TO.N,Net-(U1-Pad10)*%
X109295001Y-77545001D03*
%TO.P,U1,9*%
%TO.N,Net-(U1-Pad9)*%
X106755001Y-77545001D03*
%TO.P,U1,8*%
%TO.N,Net-(U1-Pad8)*%
X104215001Y-77545001D03*
%TO.P,U1,7*%
%TO.N,Net-(U1-Pad7)*%
X101675001Y-77545001D03*
%TO.P,U1,6*%
%TO.N,Net-(U1-Pad6)*%
X99135001Y-77545001D03*
%TO.P,U1,5*%
%TO.N,Net-(U1-Pad5)*%
X96595001Y-77545001D03*
%TO.P,U1,4*%
%TO.N,Net-(U1-Pad4)*%
X94055001Y-77545001D03*
%TO.P,U1,3*%
%TO.N,Net-(U1-Pad3)*%
X91515001Y-77545001D03*
%TO.P,U1,2*%
%TO.N,Net-(U1-Pad2)*%
X88975001Y-77545001D03*
D15*
%TO.P,U1,1*%
%TO.N,/GND*%
X86435001Y-77545001D03*
D14*
%TO.P,U1,40*%
%TO.N,Net-(U1-Pad40)*%
X86612801Y-70229801D03*
%TO.P,U1,39*%
%TO.N,Net-(U1-Pad39)*%
X86612801Y-72211001D03*
%TD*%
D16*
%TO.N,/3.3v*%
X110490000Y-83820000D02*
X118110000Y-83820000D01*
%TD*%
M02*
